<svg version="1.1" id="Layer_1" xmlns="http://www.w3.org/2000/svg" xmlns:xlink="http://www.w3.org/1999/xlink" x="0px" y="0px"
	 width="100%" viewBox="0 0 318 159" enable-background="new 0 0 318 159" xml:space="preserve">
<path fill="#FEFDFD" opacity="1.000000" stroke="none" 
	d="
M240.000000,160.000000 
	C186.979111,160.000000 133.958206,160.000000 80.579544,159.542572 
	C80.234016,107.378632 80.247719,55.672123 80.247734,3.965612 
	C80.247734,2.977075 80.086182,1.988537 80.000000,1.000000 
	C133.020889,1.000000 186.041794,1.000000 239.420471,1.457420 
	C239.765991,53.621357 239.752274,105.327873 239.752258,157.034393 
	C239.752258,158.022934 239.913818,159.011459 240.000000,160.000000 
M161.995102,117.404243 
	C164.149048,117.069679 166.380173,116.198669 168.443283,116.495491 
	C176.429977,117.644531 184.363174,119.165642 192.915527,120.652359 
	C192.519684,118.847633 192.386902,117.914139 192.108963,117.026093 
	C189.499222,108.687386 189.488678,108.685493 196.509583,102.970383 
	C204.727127,96.281197 212.951309,89.600174 221.361893,82.761696 
	C212.910019,78.473190 212.919891,78.476357 215.721069,69.734001 
	C216.528687,67.213432 217.305618,64.681046 218.007782,62.129620 
	C218.304138,61.052734 218.370682,59.912590 218.562332,58.667053 
	C212.007568,59.916382 206.235687,61.016495 200.419327,62.125088 
	C198.840256,59.134281 197.354233,56.319725 195.441101,52.696239 
	C189.888351,58.603004 184.967728,63.837337 179.998367,69.123512 
	C176.358795,65.326469 178.888016,61.569084 179.450211,58.076084 
	C180.783157,49.794132 182.574768,41.585999 184.180984,33.348030 
	C183.800278,32.942909 183.419571,32.537785 183.038864,32.132664 
	C179.387161,33.981739 175.735458,35.830818 171.950821,37.747204 
	C168.279190,30.584423 164.583969,23.375624 160.515106,15.437944 
	C159.109497,17.375040 157.843506,18.766489 156.981781,20.374563 
	C154.550186,24.912214 152.258347,29.525759 149.963242,34.135193 
	C148.578186,36.916916 147.076599,38.052540 144.001572,35.863091 
	C141.826172,34.314186 139.059677,33.595448 135.515793,32.052891 
	C137.751709,43.505997 139.723358,53.269321 141.497391,63.068424 
	C141.752823,64.479279 141.056778,66.062401 140.801041,67.565796 
	C139.358383,66.875656 137.614548,66.495819 136.526733,65.440056 
	C132.463242,61.496250 128.614685,57.330982 124.244331,52.790451 
	C123.122147,55.113991 122.394760,56.234856 122.022057,57.463326 
	C120.856712,61.304382 119.000107,62.630817 114.751190,61.091133 
	C110.522377,59.558743 105.884758,59.154537 100.563858,58.081734 
	C102.153915,62.979492 103.433899,66.713760 104.578400,70.489098 
	C107.303085,79.476959 108.484062,78.021210 99.703583,82.093994 
	C99.490906,82.192642 99.403595,82.561569 99.044235,83.160255 
	C106.484055,89.167404 113.709358,95.576881 121.534637,101.142838 
	C128.134216,105.836975 132.568344,110.504112 127.322609,118.765465 
	C127.193359,118.969017 127.406357,119.389885 127.552460,120.264542 
	C129.098007,120.152023 130.718781,120.172234 132.287277,119.895752 
	C138.829773,118.742439 145.361435,117.525452 151.886887,116.278587 
	C154.847458,115.712883 157.553040,115.660995 158.687195,119.775681 
	C158.104645,128.979385 157.522079,138.183090 156.928543,147.560333 
	C159.205780,147.560333 160.920135,147.560333 162.545990,147.560333 
	C162.743530,146.971039 162.946960,146.662537 162.932205,146.364883 
	C162.464447,136.930573 161.975525,127.497307 161.995102,117.404243 
z"/>
<path fill="#D52B1E" opacity="1.000000" stroke="none" 
	d="
M79.000000,160.000000 
	C53.036144,160.000000 27.072285,160.000000 1.054214,160.000000 
	C1.054214,107.109863 1.054214,54.219662 1.054214,1.000000 
	C26.686623,1.000000 52.374653,1.000000 78.531342,1.468657 
	C79.000000,54.624878 79.000000,107.312439 79.000000,160.000000 
z"/>
<path fill="#D52B1E" opacity="1.000000" stroke="none" 
	d="
M241.000000,1.000000 
	C266.963837,1.000000 292.927704,1.000000 318.945770,1.000000 
	C318.945770,53.890091 318.945770,106.780251 318.945770,160.000000 
	C293.313385,160.000000 267.625336,160.000000 241.468658,159.531342 
	C241.000000,106.375122 241.000000,53.687561 241.000000,1.000000 
z"/>
<path fill="#D31800" opacity="1.000000" stroke="none" 
	d="
M79.250000,160.000000 
	C79.000000,107.312439 79.000000,54.624878 79.000000,1.468657 
	C79.000000,1.000000 79.500000,1.000000 79.750000,1.000000 
	C80.086182,1.988537 80.247734,2.977075 80.247734,3.965612 
	C80.247719,55.672123 80.234016,107.378632 80.110886,159.542572 
	C80.000000,160.000000 79.500000,160.000000 79.250000,160.000000 
z"/>
<path fill="#D31800" opacity="1.000000" stroke="none" 
	d="
M240.750000,1.000000 
	C241.000000,53.687561 241.000000,106.375122 241.000000,159.531342 
	C241.000000,160.000000 240.500000,160.000000 240.250000,160.000000 
	C239.913818,159.011459 239.752258,158.022934 239.752258,157.034393 
	C239.752274,105.327873 239.765991,53.621357 239.889130,1.457420 
	C240.000000,1.000000 240.500000,1.000000 240.750000,1.000000 
z"/>
<path fill="#D52C1F" opacity="1.000000" stroke="none" 
	d="
M159.095657,118.902847 
	C157.553040,115.660995 154.847458,115.712883 151.886887,116.278587 
	C145.361435,117.525452 138.829773,118.742439 132.287277,119.895752 
	C130.718781,120.172234 129.098007,120.152023 127.552460,120.264542 
	C127.406357,119.389885 127.193359,118.969017 127.322609,118.765465 
	C132.568344,110.504112 128.134216,105.836975 121.534637,101.142838 
	C113.709358,95.576881 106.484055,89.167404 99.044235,83.160255 
	C99.403595,82.561569 99.490906,82.192642 99.703583,82.093994 
	C108.484062,78.021210 107.303085,79.476959 104.578400,70.489098 
	C103.433899,66.713760 102.153915,62.979492 100.563858,58.081734 
	C105.884758,59.154537 110.522377,59.558743 114.751190,61.091133 
	C119.000107,62.630817 120.856712,61.304382 122.022057,57.463326 
	C122.394760,56.234856 123.122147,55.113991 124.244331,52.790451 
	C128.614685,57.330982 132.463242,61.496250 136.526733,65.440056 
	C137.614548,66.495819 139.358383,66.875656 140.801056,67.565796 
	C141.056778,66.062401 141.752823,64.479279 141.497391,63.068424 
	C139.723358,53.269321 137.751709,43.505997 135.515793,32.052891 
	C139.059677,33.595448 141.826172,34.314186 144.001572,35.863091 
	C147.076599,38.052540 148.578186,36.916916 149.963242,34.135193 
	C152.258347,29.525759 154.550186,24.912214 156.981781,20.374563 
	C157.843506,18.766489 159.109497,17.375040 160.515106,15.437944 
	C164.583969,23.375624 168.279190,30.584423 171.950821,37.747204 
	C175.735458,35.830818 179.387161,33.981739 183.038864,32.132664 
	C183.419571,32.537785 183.800278,32.942909 184.180984,33.348030 
	C182.574768,41.585999 180.783157,49.794132 179.450211,58.076084 
	C178.888016,61.569084 176.358795,65.326469 179.998367,69.123512 
	C184.967728,63.837337 189.888351,58.603004 195.441101,52.696239 
	C197.354233,56.319725 198.840256,59.134281 200.419327,62.125088 
	C206.235687,61.016495 212.007568,59.916382 218.562332,58.667053 
	C218.370682,59.912590 218.304138,61.052734 218.007782,62.129620 
	C217.305618,64.681046 216.528687,67.213432 215.721069,69.734001 
	C212.919891,78.476357 212.910019,78.473190 221.361893,82.761696 
	C212.951309,89.600174 204.727127,96.281197 196.509583,102.970383 
	C189.488678,108.685493 189.499222,108.687386 192.108963,117.026093 
	C192.386902,117.914139 192.519684,118.847633 192.915527,120.652359 
	C184.363174,119.165642 176.429977,117.644531 168.443283,116.495491 
	C166.380173,116.198669 164.149048,117.069679 161.550262,117.840248 
	C160.435486,118.485115 159.765579,118.693977 159.095657,118.902847 
z"/>
<path fill="#D83D31" opacity="1.000000" stroke="none" 
	d="
M158.891418,119.339264 
	C159.765579,118.693977 160.435486,118.485115 161.297607,118.170067 
	C161.975525,127.497307 162.464447,136.930573 162.932205,146.364883 
	C162.946960,146.662537 162.743530,146.971039 162.545990,147.560333 
	C160.920135,147.560333 159.205780,147.560333 156.928543,147.560333 
	C157.522079,138.183090 158.104645,128.979385 158.891418,119.339264 
z"/>
</svg>