<svg version="1.1" id="Layer_1" xmlns="http://www.w3.org/2000/svg" xmlns:xlink="http://www.w3.org/1999/xlink" x="0px" y="0px"
	 width="100%" viewBox="0 0 255 170" enable-background="new 0 0 255 170" xml:space="preserve">
<path fill="#FFFFFF" opacity="1.000000" stroke="none" 
	d="
M171.000000,171.000000 
	C142.979111,171.000000 114.958214,171.000000 86.468658,170.531342 
	C86.000000,116.342033 86.000000,62.621384 86.000000,8.900732 
	C86.000000,6.267155 86.000000,3.633577 86.000000,1.000000 
	C114.020897,1.000000 142.041794,1.000000 170.531342,1.468657 
	C171.000000,58.291542 171.000000,114.645775 171.000000,171.000000 
z"/>
<path fill="#CE1126" opacity="1.000000" stroke="none" 
	d="
M171.468658,171.000000 
	C171.000000,114.645775 171.000000,58.291542 171.000000,1.468657 
	C199.296829,1.000000 227.593658,1.000000 255.945251,1.000000 
	C255.945251,57.557114 255.945251,114.114296 255.945251,171.000000 
	C227.979965,171.000000 199.958633,171.000000 171.468658,171.000000 
z"/>
<path fill="#002654" opacity="1.000000" stroke="none" 
	d="
M85.531342,1.000000 
	C86.000000,3.633577 86.000000,6.267155 86.000000,8.900732 
	C86.000000,62.621384 86.000000,116.342033 86.000000,170.531342 
	C57.703163,171.000000 29.406326,171.000000 1.054745,171.000000 
	C1.054745,114.442871 1.054745,57.885670 1.054745,1.000000 
	C29.020039,1.000000 57.041363,1.000000 85.531342,1.000000 
z"/>
</svg>