<svg version="1.1" id="Layer_1" xmlns="http://www.w3.org/2000/svg" xmlns:xlink="http://www.w3.org/1999/xlink" x="0px" y="0px"
	 width="100%" viewBox="0 0 275 183" enable-background="new 0 0 275 183" xml:space="preserve">
<path fill="#EE1C25" opacity="1.000000" stroke="none" 
	d="
M169.000000,184.000000 
	C112.666672,184.000000 56.833347,184.000000 1.000015,184.000000 
	C1.000010,123.000015 1.000010,62.000027 1.000005,1.000031 
	C92.666649,1.000021 184.333298,1.000021 275.999939,1.000010 
	C275.999969,61.999969 275.999969,122.999939 276.000000,183.999954 
	C240.500000,184.000000 205.000000,184.000000 169.000000,184.000000 
M146.664062,85.818329 
	C148.779083,85.804184 150.894104,85.790031 153.781693,85.843269 
	C157.469589,88.211143 161.157486,90.579025 164.755692,93.125137 
	C164.755692,93.125137 164.616745,93.160484 164.616745,93.160484 
	C164.616745,93.160484 164.733810,92.915321 165.600189,92.911674 
	C171.367279,94.510284 175.833359,92.390488 179.806595,88.264580 
	C183.068039,84.877800 186.967484,84.722641 191.267471,87.487846 
	C191.765305,86.988571 192.263123,86.489288 192.744598,85.277740 
	C186.904312,69.923172 173.940369,62.520943 159.189789,66.118416 
	C148.722900,68.671165 138.672104,79.868187 139.659409,87.878578 
	C141.767075,86.988419 143.874741,86.098259 146.664062,85.818329 
M114.024651,109.341560 
	C112.005455,112.258339 108.901627,114.937447 108.199265,118.142776 
	C106.854797,124.278427 104.661247,128.575790 97.395325,128.306305 
	C104.084801,136.708420 118.369141,139.956650 131.386581,131.260147 
	C142.742676,123.673546 147.343369,106.957138 140.148499,97.397835 
	C139.323395,98.492577 138.420197,99.356735 137.918716,100.411827 
	C135.158447,106.219406 130.885529,108.255547 124.761780,107.687798 
	C121.476410,107.383194 118.058548,108.507607 114.024651,109.341560 
M147.002289,114.329681 
	C146.071335,121.189011 148.588593,127.480019 153.167770,129.694687 
	C161.006424,133.485764 161.731415,136.746658 160.169205,142.520615 
	C171.505600,136.662308 176.958572,123.283302 173.094559,110.807961 
	C169.033737,97.697205 156.717285,89.856430 143.702637,91.391960 
	C145.740753,95.710159 148.588165,100.129135 149.789795,104.957680 
	C150.407120,107.438309 148.088226,110.649635 147.002289,114.329681 
M149.268250,58.711002 
	C148.825989,56.956432 148.621094,55.096981 147.900223,53.465515 
	C144.839737,46.539116 145.066162,44.563023 149.922455,39.408852 
	C136.105331,37.444981 122.734138,47.221882 120.143517,61.113213 
	C117.916328,73.055748 125.233833,89.061409 134.670792,89.853310 
	C134.756271,89.382347 134.999878,88.871140 134.906677,88.431305 
	C132.907242,78.996735 133.978668,76.432045 141.938766,71.680496 
	C146.556198,68.924271 149.231567,64.984528 149.268250,58.711002 
M93.278992,68.336136 
	C92.700310,67.161156 92.121635,65.986176 91.542099,64.809464 
	C91.394348,64.892075 91.233925,64.924706 91.196854,65.010582 
	C85.996193,77.056358 88.640244,89.237946 99.600960,98.362381 
	C107.918419,105.286392 122.410683,106.391060 132.354950,98.446075 
	C133.169006,97.795685 133.262924,96.243950 133.716583,95.044594 
	C123.917793,93.690376 121.721786,91.668777 119.830620,82.854576 
	C118.118828,74.876389 111.203705,70.150658 103.204659,71.694252 
	C99.473587,72.414238 96.297401,71.867355 93.278992,68.336136 
z"/>
<path fill="#FEF8F9" opacity="1.000000" stroke="none" 
	d="
M114.362564,109.164368 
	C118.058548,108.507607 121.476410,107.383194 124.761780,107.687798 
	C130.885529,108.255547 135.158447,106.219406 137.918716,100.411827 
	C138.420197,99.356735 139.323395,98.492577 140.148499,97.397835 
	C147.343369,106.957138 142.742676,123.673546 131.386581,131.260147 
	C118.369141,139.956650 104.084801,136.708420 97.395325,128.306305 
	C104.661247,128.575790 106.854797,124.278427 108.199265,118.142776 
	C108.901627,114.937447 112.005455,112.258339 114.362564,109.164368 
z"/>
<path fill="#FEF8F9" opacity="1.000000" stroke="none" 
	d="
M147.049255,113.930222 
	C148.088226,110.649635 150.407120,107.438309 149.789795,104.957680 
	C148.588165,100.129135 145.740753,95.710159 143.702637,91.391960 
	C156.717285,89.856430 169.033737,97.697205 173.094559,110.807961 
	C176.958572,123.283302 171.505600,136.662308 160.169205,142.520615 
	C161.731415,136.746658 161.006424,133.485764 153.167770,129.694687 
	C148.588593,127.480019 146.071335,121.189011 147.049255,113.930222 
z"/>
<path fill="#FEF9F9" opacity="1.000000" stroke="none" 
	d="
M149.288818,59.095810 
	C149.231567,64.984528 146.556198,68.924271 141.938766,71.680496 
	C133.978668,76.432045 132.907242,78.996735 134.906677,88.431305 
	C134.999878,88.871140 134.756271,89.382347 134.670792,89.853310 
	C125.233833,89.061409 117.916328,73.055748 120.143517,61.113213 
	C122.734138,47.221882 136.105331,37.444981 149.922455,39.408852 
	C145.066162,44.563023 144.839737,46.539116 147.900223,53.465515 
	C148.621094,55.096981 148.825989,56.956432 149.288818,59.095810 
z"/>
<path fill="#FEF9F9" opacity="1.000000" stroke="none" 
	d="
M93.508911,68.621483 
	C96.297401,71.867355 99.473587,72.414238 103.204659,71.694252 
	C111.203705,70.150658 118.118828,74.876389 119.830620,82.854576 
	C121.721786,91.668777 123.917793,93.690376 133.716583,95.044594 
	C133.262924,96.243950 133.169006,97.795685 132.354950,98.446075 
	C122.410683,106.391060 107.918419,105.286392 99.600960,98.362381 
	C88.640244,89.237946 85.996193,77.056358 91.196854,65.010582 
	C91.233925,64.924706 91.394348,64.892075 91.542099,64.809464 
	C92.121635,65.986176 92.700310,67.161156 93.508911,68.621483 
z"/>
<path fill="#FFFFFF" opacity="1.000000" stroke="none" 
	d="
M191.024612,86.924408 
	C186.967484,84.722641 183.068039,84.877800 179.806595,88.264580 
	C175.833359,92.390488 171.367279,94.510284 165.184448,92.949417 
	C164.768692,92.987152 164.845383,92.946899 164.845383,92.946899 
	C161.157486,90.579025 157.469589,88.211143 153.251175,85.493546 
	C150.474579,85.165253 148.228500,85.186684 145.982422,85.208115 
	C143.874741,86.098259 141.767075,86.988419 139.659058,87.877747 
	C138.672104,79.868187 148.722900,68.671165 159.189789,66.118416 
	C173.940369,62.520943 186.904312,69.923172 192.501938,85.679977 
	C191.847733,86.362938 191.436172,86.643669 191.024612,86.924408 
M143.501862,82.988190 
	C143.770065,82.680626 144.038284,82.373062 144.306503,82.065506 
	C143.843872,82.358994 143.381256,82.652473 142.787308,83.059326 
	C142.787308,83.059326 142.813538,83.308876 142.813538,83.308876 
	C142.813538,83.308876 143.060287,83.090981 143.501862,82.988190 
M171.184845,76.896355 
	C170.186295,76.875877 169.187759,76.855408 168.099655,76.472534 
	C167.910843,76.326485 167.722031,76.180428 167.533218,76.034378 
	C167.659988,76.366974 167.786774,76.699577 167.800873,77.663162 
	C167.485275,79.469177 167.169662,81.275192 166.735687,83.758537 
	C169.439545,82.457207 170.943192,81.733528 172.453735,81.006523 
	C172.334305,79.648109 172.220673,78.355667 172.250320,76.939224 
	C172.250320,76.939224 172.207703,76.653854 172.207703,76.653854 
	C172.207703,76.653854 171.934113,76.886559 171.184845,76.896355 
M154.485291,77.170578 
	C154.485291,77.170578 154.582504,76.869225 154.582504,76.869225 
	C154.582504,76.869225 154.359879,77.061264 154.485291,77.170578 
M147.495911,80.531395 
	C147.495911,80.531395 147.477219,80.485504 147.495911,80.531395 
z"/>
<path fill="#FEF8F8" opacity="1.000000" stroke="none" 
	d="
M146.323242,85.513222 
	C148.228500,85.186684 150.474579,85.165253 152.864899,85.459854 
	C150.894104,85.790031 148.779083,85.804184 146.323242,85.513222 
z"/>
<path fill="#FEF8F8" opacity="1.000000" stroke="none" 
	d="
M191.146042,87.206131 
	C191.436172,86.643669 191.847733,86.362938 192.510117,86.036110 
	C192.263123,86.489288 191.765305,86.988571 191.146042,87.206131 
z"/>
<path fill="#FEF8F8" opacity="1.000000" stroke="none" 
	d="
M164.800537,93.036018 
	C164.845383,92.946899 164.768692,92.987152 164.751251,92.951233 
	C164.733810,92.915321 164.616745,93.160484 164.616745,93.160484 
	C164.616745,93.160484 164.755692,93.125137 164.800537,93.036018 
z"/>
<path fill="#FEF8F8" opacity="1.000000" stroke="none" 
	d="
M172.107056,77.063225 
	C172.220673,78.355667 172.334305,79.648109 172.453735,81.006523 
	C170.943192,81.733528 169.439545,82.457207 166.735687,83.758537 
	C167.169662,81.275192 167.485275,79.469177 167.927704,77.300560 
	C168.054535,76.937958 168.189209,76.834930 168.189209,76.834930 
	C169.187759,76.855408 170.186295,76.875877 171.599548,76.938713 
	C172.014252,76.981071 172.107040,77.063225 172.107056,77.063225 
z"/>
<path fill="#FEF8F8" opacity="1.000000" stroke="none" 
	d="
M142.918625,82.945961 
	C143.381256,82.652473 143.843872,82.358994 144.306503,82.065506 
	C144.038284,82.373062 143.770065,82.680626 143.247772,83.001251 
	C142.993698,83.014320 142.918625,82.945961 142.918625,82.945961 
z"/>
<path fill="#FEF8F8" opacity="1.000000" stroke="none" 
	d="
M154.422577,77.115921 
	C154.359879,77.061264 154.582504,76.869225 154.582504,76.869225 
	C154.582504,76.869225 154.485291,77.170578 154.422577,77.115921 
z"/>
<path fill="#FEF8F8" opacity="1.000000" stroke="none" 
	d="
M167.984039,76.985062 
	C167.786774,76.699577 167.659988,76.366974 167.533218,76.034378 
	C167.722031,76.180428 167.910843,76.326485 168.144440,76.653732 
	C168.189209,76.834930 168.054535,76.937958 167.984039,76.985062 
z"/>
<path fill="#FEF8F8" opacity="1.000000" stroke="none" 
	d="
M171.974182,76.933815 
	C171.934113,76.886559 172.207703,76.653854 172.207703,76.653854 
	C172.207703,76.653854 172.250320,76.939224 172.178680,77.001221 
	C172.107040,77.063225 172.014252,76.981071 171.974182,76.933815 
z"/>
<path fill="#FEF8F8" opacity="1.000000" stroke="none" 
	d="
M147.486572,80.508453 
	C147.477219,80.485504 147.495911,80.531395 147.486572,80.508453 
z"/>
<path fill="#FEF8F8" opacity="1.000000" stroke="none" 
	d="
M143.026993,83.052650 
	C143.060287,83.090981 142.813538,83.308876 142.813538,83.308876 
	C142.813538,83.308876 142.787308,83.059326 142.852966,83.002640 
	C142.918625,82.945961 142.993698,83.014320 143.026993,83.052650 
z"/>
</svg>