<svg version="1.1" id="Layer_1" xmlns="http://www.w3.org/2000/svg" xmlns:xlink="http://www.w3.org/1999/xlink" x="0px" y="0px"
	 width="100%" viewBox="0 0 272 176" enable-background="new 0 0 272 176" xml:space="preserve">
<path fill="#000000" opacity="1.000000" stroke="none" 
	d="
M94.616409,127.402191 
	C101.030449,135.968292 109.555824,140.869049 118.998985,144.520554 
	C125.379692,146.987885 131.869431,148.778549 138.746765,149.092346 
	C140.358429,149.165894 142.069763,149.589600 142.904205,151.345520 
	C137.341263,157.213531 124.482864,156.847076 119.848160,150.455154 
	C118.990799,149.272705 118.209473,149.031052 117.170532,148.837372 
	C112.290932,147.927719 107.691948,146.310684 103.475891,143.660477 
	C103.065178,143.402313 102.377457,143.264328 102.254425,142.916367 
	C99.839386,136.086349 92.910187,133.528336 88.673622,128.467484 
	C83.640572,122.455185 81.681496,115.201241 81.332916,107.476891 
	C81.315727,107.095978 81.862823,106.689590 82.669411,105.570404 
	C87.264290,112.860443 89.125626,120.984200 94.616409,127.402191 
z"/>
<path fill="#000000" opacity="1.000000" stroke="none" 
	d="
M188.278992,66.811050 
	C187.094177,64.510132 185.541992,62.747982 185.804153,60.237637 
	C194.834412,68.476242 197.741379,79.675926 201.500092,90.460571 
	C198.393509,90.429977 199.862869,88.264030 198.616745,86.971329 
	C195.218216,88.305626 194.136978,86.245811 193.768784,83.150368 
	C193.091568,77.456993 190.395111,72.418533 188.278992,66.811050 
z"/>
<path fill="#000000" opacity="1.000000" stroke="none" 
	d="
M180.682266,130.348907 
	C187.742676,122.636734 190.080063,112.771904 194.382416,103.515396 
	C198.037277,110.447845 189.320663,127.482437 179.617462,133.542130 
	C178.613281,132.179016 180.062500,131.527710 180.682266,130.348907 
z"/>
<path fill="#000000" opacity="1.000000" stroke="none" 
	d="
M179.328125,50.616768 
	C177.914871,53.268028 176.801941,50.924084 176.021515,50.368710 
	C168.831635,45.252220 161.117340,41.133598 153.141418,37.425789 
	C164.063782,37.124615 172.428299,42.149391 179.328125,50.616768 
z"/>
<path fill="#000000" opacity="1.000000" stroke="none" 
	d="
M182.954803,67.618179 
	C181.452194,63.421471 178.817520,60.475754 175.444641,58.247871 
	C171.514038,55.651588 169.293381,51.522427 164.928192,48.194492 
	C172.898300,48.862141 184.188400,61.753155 184.504150,69.346939 
	C183.279724,69.631332 183.322647,68.608353 182.954803,67.618179 
z"/>
<path fill="#000000" opacity="1.000000" stroke="none" 
	d="
M94.514900,67.018051 
	C93.831970,67.672081 93.363899,68.110062 92.778244,68.658073 
	C92.578850,62.934620 103.597847,50.713551 110.613472,49.592445 
	C104.582886,55.389511 99.247894,60.739651 94.514900,67.018051 
z"/>
<path fill="#000000" opacity="1.000000" stroke="none" 
	d="
M173.610779,139.984482 
	C168.210571,143.849655 163.260620,148.063965 156.117432,146.815659 
	C162.255081,143.282654 168.763336,140.513962 174.826904,136.599258 
	C175.436081,138.482712 174.334976,138.973129 173.610779,139.984482 
z"/>
<path fill="#000000" opacity="1.000000" stroke="none" 
	d="
M87.649002,82.114433 
	C89.223450,89.220352 87.565483,96.117661 88.283180,103.438148 
	C84.015968,99.177597 83.818703,87.880585 87.649002,82.114433 
z"/>
<path fill="#000000" opacity="1.000000" stroke="none" 
	d="
M88.934799,66.172531 
	C86.718361,70.398460 85.797722,74.925766 82.914787,78.974548 
	C80.080444,73.502197 83.413101,66.559982 88.737160,62.850941 
	C90.249992,63.689198 89.290382,64.817863 88.934799,66.172531 
z"/>
<path fill="#000000" opacity="1.000000" stroke="none" 
	d="
M126.377892,144.412048 
	C124.135300,141.689178 126.382858,141.801880 127.732651,141.924255 
	C131.638489,142.278351 135.522476,142.873611 139.431458,143.917343 
	C135.392868,147.208725 130.956390,144.965103 126.377892,144.412048 
z"/>
<path fill="#000000" opacity="1.000000" stroke="none" 
	d="
M190.337250,81.958328 
	C190.350830,83.235268 190.902222,84.349403 188.890518,85.114853 
	C187.232376,81.066528 185.325653,77.184830 185.988312,71.975517 
	C190.115570,74.599091 189.937973,78.216187 190.337250,81.958328 
z"/>
<path fill="#000000" opacity="1.000000" stroke="none" 
	d="
M186.398575,108.481079 
	C187.750107,106.871429 187.586670,104.612312 190.348419,103.587212 
	C189.961716,109.857040 185.997742,113.583832 182.880676,117.757698 
	C182.197159,114.017197 185.524368,111.935608 186.398575,108.481079 
z"/>
<path fill="#000000" opacity="1.000000" stroke="none" 
	d="
M108.362991,136.063324 
	C107.514702,135.355301 106.899277,134.849930 106.018463,134.126633 
	C111.824844,134.927643 114.464539,136.452606 117.108101,140.600601 
	C113.300362,140.587662 111.033760,138.247559 108.362991,136.063324 
z"/>
<path fill="#000000" opacity="1.000000" stroke="none" 
	d="
M147.164093,142.495789 
	C149.874207,141.705933 152.229385,140.176208 155.272461,141.809006 
	C152.931061,144.669022 149.930725,144.664520 147.132401,144.656647 
	C145.686508,144.652573 145.914322,143.484589 147.164093,142.495789 
z"/>
<path fill="#000000" opacity="1.000000" stroke="none" 
	d="
M108.169724,42.404961 
	C109.342606,41.958740 110.188889,41.159561 111.425766,42.278088 
	C109.382835,45.216217 105.909050,45.404842 102.511932,47.584251 
	C103.518570,43.972282 106.152245,43.791573 108.169724,42.404961 
z"/>
<path fill="#000000" opacity="1.000000" stroke="none" 
	d="
M158.050735,45.461975 
	C157.220261,44.306454 156.894089,43.217316 158.491272,43.299419 
	C160.482422,43.401768 162.296814,44.182995 163.222473,46.574142 
	C161.142456,48.394093 159.733124,46.755417 158.050735,45.461975 
z"/>
<path fill="#000000" opacity="1.000000" stroke="none" 
	d="
M95.731750,118.678284 
	C95.652428,119.781998 95.326271,121.083794 94.486496,120.399414 
	C92.915169,119.118866 91.510162,117.451317 91.298073,114.833923 
	C94.137032,114.873016 95.146454,116.350487 95.731750,118.678284 
z"/>
</svg>