<svg version="1.1" id="Layer_1" xmlns="http://www.w3.org/2000/svg" xmlns:xlink="http://www.w3.org/1999/xlink" x="0px" y="0px"
	 width="100%" viewBox="0 0 318 159" enable-background="new 0 0 318 159" xml:space="preserve">
<path fill="#C8102E" opacity="1.000000" stroke="none" 
	d="
M144.000000,1.000000 
	C154.354233,1.000000 164.708450,1.000000 175.504974,1.468015 
	C175.985367,22.886229 176.023468,43.836430 176.143311,64.927078 
	C176.225052,65.067535 176.597488,65.267464 176.597488,65.267464 
	C176.597488,65.267464 176.997147,65.031006 177.455582,64.925240 
	C220.960739,64.807304 264.007477,64.789314 307.054199,64.793472 
	C310.703064,64.793823 314.351929,64.942184 318.129089,65.221390 
	C318.457306,65.675041 318.704865,65.868034 319.000000,66.000000 
	C319.000000,75.354225 319.000000,84.708458 318.796387,94.653305 
	C318.342682,95.446312 318.145294,95.691216 317.541626,96.080765 
	C272.041321,96.194481 226.999985,96.208710 181.958664,96.207123 
	C180.304840,96.207069 178.651001,96.052155 176.873932,95.867203 
	C176.419647,95.689270 176.189880,95.839020 176.032104,96.668762 
	C176.001892,118.082176 176.000946,139.041092 176.000000,160.000000 
	C165.645767,160.000000 155.291550,160.000000 144.494995,159.531982 
	C144.014603,138.113785 143.976517,117.163597 143.856689,96.072952 
	C143.535721,95.653770 143.278351,95.665947 142.544403,96.074791 
	C99.039207,96.192726 55.992428,96.210716 12.945650,96.206573 
	C9.296773,96.206215 5.647911,96.057846 1.870829,95.778610 
	C1.542686,95.324921 1.295147,95.131927 1.000000,95.000000 
	C1.000000,85.645775 1.000000,76.291542 1.203586,66.346710 
	C1.657287,65.553726 1.854615,65.308815 2.458170,64.919250 
	C47.958569,64.805534 92.999954,64.791306 138.041336,64.792892 
	C139.695160,64.792953 141.348999,64.947853 143.126068,65.132782 
	C143.580353,65.310745 143.810120,65.161003 143.967896,64.331253 
	C143.998123,42.917831 143.999054,21.958916 144.000000,1.000000 
z"/>
<path fill="#FBF9FA" opacity="1.000000" stroke="none" 
	d="
M176.458069,160.000000 
	C176.000946,139.041092 176.001892,118.082176 176.270782,96.625641 
	C176.538727,96.128006 176.997177,95.969406 176.997177,95.969406 
	C178.651001,96.052155 180.304840,96.207069 181.958664,96.207123 
	C226.999985,96.208710 272.041321,96.194481 317.790131,96.150177 
	C318.665070,96.078300 318.832550,96.039146 319.000000,96.000000 
	C319.000000,99.361290 319.000000,102.722572 318.531372,106.548950 
	C295.579254,107.014046 273.095734,107.014046 250.612228,107.014046 
	C250.568787,107.336342 250.525360,107.658646 250.481918,107.980942 
	C273.321289,119.320625 296.160645,130.660309 319.000000,142.000000 
	C319.000000,143.714355 319.000000,145.428711 318.656006,147.496460 
	C295.003021,136.192307 271.337891,125.180031 248.538483,112.598961 
	C237.503555,106.509705 226.514053,107.078407 213.767548,107.082138 
	C216.088699,108.386116 217.286499,109.126900 218.541138,109.753952 
	C250.186142,125.569664 281.840393,141.366913 313.477417,157.198578 
	C315.056732,157.988907 316.495697,159.059753 318.000000,160.000000 
	C306.312439,160.000000 294.624878,160.000000 282.409943,159.645355 
	C273.744080,155.207916 265.654907,151.022949 257.455505,147.066376 
	C245.292633,141.197220 232.970810,135.653320 220.868179,129.664749 
	C210.135452,124.354027 199.609344,118.625771 188.667877,112.822266 
	C187.791840,112.964569 186.757111,113.367134 186.757690,113.768242 
	C186.779449,129.178909 186.896011,144.589447 187.000000,160.000000 
	C183.638718,160.000000 180.277420,160.000000 176.458069,160.000000 
z"/>
<path fill="#FBF9FA" opacity="1.000000" stroke="none" 
	d="
M143.541931,1.000000 
	C143.999054,21.958916 143.998123,42.917831 143.729218,64.374374 
	C143.461273,64.872009 143.002823,65.030602 143.002823,65.030602 
	C141.348999,64.947853 139.695160,64.792953 138.041336,64.792892 
	C92.999954,64.791306 47.958569,64.805534 2.209730,64.849838 
	C1.334851,64.921715 1.167426,64.960861 1.000000,65.000000 
	C1.000000,61.638714 1.000000,58.277424 1.468609,54.450897 
	C24.419613,53.985657 46.902008,53.985657 70.912979,53.985657 
	C68.169823,52.492836 66.817535,51.669086 65.393967,50.996109 
	C53.943035,45.582783 42.391548,40.373714 31.044380,34.751846 
	C20.914677,29.733166 11.006135,24.268091 1.000000,19.000000 
	C1.000000,17.285641 1.000000,15.571283 1.344616,13.501633 
	C24.999821,24.803797 48.661938,35.823452 71.469376,48.393826 
	C82.501740,54.474335 93.494751,53.968441 106.195625,53.891834 
	C103.936806,52.624489 102.740761,51.886631 101.488747,51.260735 
	C69.837120,35.437790 38.176434,19.632971 6.532584,3.794501 
	C4.951567,3.003165 3.507718,1.937781 2.000000,1.000000 
	C13.687561,1.000000 25.375122,1.000000 37.589996,1.354573 
	C43.891937,4.590993 49.662346,7.481329 55.441917,10.353220 
	C80.628838,22.868694 105.818428,35.378807 131.334076,48.146469 
	C132.211258,48.009930 133.242706,47.617085 133.242142,47.225731 
	C133.219925,31.817070 133.103836,16.408545 133.000000,1.000000 
	C136.361282,1.000000 139.722580,1.000000 143.541931,1.000000 
z"/>
<path fill="#FBF9FA" opacity="1.000000" stroke="none" 
	d="
M143.938431,96.213409 
	C143.976517,117.163597 144.014603,138.113785 144.026337,159.531982 
	C140.638718,160.000000 137.277420,160.000000 133.595306,159.548981 
	C133.289169,144.539764 133.339188,129.981293 133.224487,115.424103 
	C133.218094,114.612015 135.193100,110.482437 130.661957,113.130737 
	C101.883392,127.384628 73.449516,141.603317 45.039059,155.868683 
	C42.612915,157.086884 40.342670,158.615555 38.000000,160.000000 
	C34.307091,160.000000 30.614182,160.000000 26.528625,159.649536 
	C60.438412,142.124161 94.740845,124.949242 129.043274,107.774330 
	C124.458588,107.003426 120.144020,107.236824 115.864868,106.947182 
	C109.870827,106.541458 104.607147,108.086960 99.243820,110.819138 
	C73.206413,124.083054 46.991909,136.998947 20.870317,150.098297 
	C14.521607,153.281998 8.287044,156.693329 1.999998,160.000000 
	C1.666666,158.055420 1.125017,156.119415 1.044623,154.164444 
	C0.890991,150.428482 1.000000,146.681702 1.348549,142.414368 
	C24.350256,130.529099 47.003414,119.168869 69.656570,107.808640 
	C69.545258,107.539093 69.433937,107.269547 69.322624,107.000000 
	C46.548416,107.000000 23.774208,107.000000 1.000000,107.000000 
	C1.000000,103.638710 1.000000,100.277428 1.251152,96.516533 
	C1.667883,96.070702 1.833462,96.024467 1.999041,95.978241 
	C5.647911,96.057846 9.296773,96.206215 12.945650,96.206573 
	C55.992428,96.210716 99.039207,96.192726 142.773590,96.153992 
	C143.461212,96.127419 143.938431,96.213409 143.938431,96.213409 
z"/>
<path fill="#FBF9FA" opacity="1.000000" stroke="none" 
	d="
M176.061554,64.786629 
	C176.023468,43.836430 175.985367,22.886229 175.973633,1.468015 
	C179.361282,1.000000 182.722580,1.000000 186.404800,1.451039 
	C186.711060,16.462488 186.660767,31.023178 186.775330,45.582573 
	C186.781815,46.404385 184.811951,50.503601 189.339783,47.900421 
	C214.122635,35.645130 238.570755,23.443457 262.971710,11.148130 
	C269.389496,7.914284 275.661194,4.390587 282.000000,0.999999 
	C285.692902,1.000000 289.385834,1.000000 293.471680,1.350650 
	C259.568878,18.880737 225.273071,36.060177 190.977295,53.239613 
	C195.550507,53.996704 199.862778,53.768410 204.141144,54.051746 
	C210.129135,54.448307 215.401367,52.947948 220.762970,50.193523 
	C242.030502,39.267693 263.512512,28.760239 284.872345,18.012817 
	C295.960938,12.433449 306.960327,6.676649 318.000000,0.999999 
	C318.333344,2.944576 318.874969,4.880589 318.955353,6.835567 
	C319.108978,10.571536 319.000000,14.318300 318.654877,18.600330 
	C295.667053,30.489555 273.024323,41.839031 250.381622,53.188507 
	C250.494217,53.459007 250.606812,53.729504 250.719406,54.000000 
	C273.479614,54.000000 296.239807,54.000000 319.000000,54.000000 
	C319.000000,57.361286 319.000000,60.722576 318.748810,64.483482 
	C318.332001,64.929321 318.166412,64.975548 318.000793,65.021782 
	C314.351929,64.942184 310.703064,64.793823 307.054199,64.793472 
	C264.007477,64.789314 220.960739,64.807304 177.226395,64.846046 
	C176.538773,64.872620 176.061569,64.786629 176.061554,64.786629 
z"/>
<path fill="#012069" opacity="1.000000" stroke="none" 
	d="
M281.531342,0.999999 
	C275.661194,4.390587 269.389496,7.914284 262.971710,11.148130 
	C238.570755,23.443457 214.122635,35.645130 189.169800,47.524559 
	C188.431427,45.209751 188.036240,43.252930 188.028259,41.294525 
	C187.973465,27.863203 187.999802,14.431548 188.000000,1.000000 
	C219.020889,1.000000 250.041794,1.000000 281.531342,0.999999 
z"/>
<path fill="#012069" opacity="1.000000" stroke="none" 
	d="
M38.468658,160.000000 
	C40.342670,158.615555 42.612915,157.086884 45.039059,155.868683 
	C73.449516,141.603317 101.883392,127.384628 130.834961,113.503525 
	C131.572754,115.810295 131.964096,117.766457 131.972000,119.724167 
	C132.026276,133.149261 132.000198,146.574692 132.000000,160.000000 
	C100.979103,160.000000 69.958214,160.000000 38.468658,160.000000 
z"/>
<path fill="#012069" opacity="1.000000" stroke="none" 
	d="
M131.007050,47.890865 
	C105.818428,35.378807 80.628838,22.868694 55.441917,10.353220 
	C49.662346,7.481329 43.891937,4.590993 38.058655,1.354573 
	C69.020897,1.000000 100.041786,1.000000 131.531555,1.468657 
	C132.000458,15.164110 132.043701,28.391193 131.956116,41.617409 
	C131.942245,43.710564 131.338211,45.799812 131.007050,47.890865 
z"/>
<path fill="#012069" opacity="1.000000" stroke="none" 
	d="
M188.992020,113.081833 
	C199.609344,118.625771 210.135452,124.354027 220.868179,129.664749 
	C232.970810,135.653320 245.292633,141.197220 257.455505,147.066376 
	C265.654907,151.022949 273.744080,155.207916 281.941284,159.645355 
	C250.979111,160.000000 219.958206,160.000000 188.468414,159.531342 
	C187.999466,145.828873 187.956284,132.594788 188.043823,119.361565 
	C188.057678,117.266327 188.661148,115.174980 188.992020,113.081833 
z"/>
<path fill="#C91532" opacity="1.000000" stroke="none" 
	d="
M317.531372,1.000000 
	C306.960327,6.676649 295.960938,12.433449 284.872345,18.012817 
	C263.512512,28.760239 242.030502,39.267693 220.762970,50.193523 
	C215.401367,52.947948 210.129135,54.448307 204.141144,54.051746 
	C199.862778,53.768410 195.550507,53.996704 190.977295,53.239613 
	C225.273071,36.060177 259.568878,18.880737 293.932312,1.350650 
	C301.687592,1.000000 309.375153,1.000000 317.531372,1.000000 
z"/>
<path fill="#C91532" opacity="1.000000" stroke="none" 
	d="
M2.468634,160.000000 
	C8.287044,156.693329 14.521607,153.281998 20.870317,150.098297 
	C46.991909,136.998947 73.206413,124.083054 99.243820,110.819138 
	C104.607147,108.086960 109.870827,106.541458 115.864868,106.947182 
	C120.144020,107.236824 124.458588,107.003426 129.043274,107.774330 
	C94.740845,124.949242 60.438412,142.124161 26.067989,159.649536 
	C18.312424,160.000000 10.624847,160.000000 2.468634,160.000000 
z"/>
<path fill="#022169" opacity="1.000000" stroke="none" 
	d="
M319.000000,53.531342 
	C296.239807,54.000000 273.479614,54.000000 250.719406,54.000000 
	C250.606812,53.729504 250.494217,53.459007 250.381622,53.188507 
	C273.024323,41.839031 295.667053,30.489555 318.654877,19.070038 
	C319.000000,30.354227 319.000000,41.708454 319.000000,53.531342 
z"/>
<path fill="#022169" opacity="1.000000" stroke="none" 
	d="
M319.000000,141.531342 
	C296.160645,130.660309 273.321289,119.320625 250.481918,107.980942 
	C250.525360,107.658646 250.568787,107.336342 250.612228,107.014046 
	C273.095734,107.014046 295.579254,107.014046 318.531372,107.007019 
	C319.000000,118.354225 319.000000,129.708450 319.000000,141.531342 
z"/>
<path fill="#022169" opacity="1.000000" stroke="none" 
	d="
M1.000000,107.468658 
	C23.774208,107.000000 46.548416,107.000000 69.322624,107.000000 
	C69.433937,107.269547 69.545258,107.539093 69.656570,107.808640 
	C47.003414,119.168869 24.350256,130.529099 1.348549,141.944672 
	C1.000000,130.645767 1.000000,119.291542 1.000000,107.468658 
z"/>
<path fill="#022169" opacity="1.000000" stroke="none" 
	d="
M1.000000,19.468658 
	C11.006135,24.268091 20.914677,29.733166 31.044380,34.751846 
	C42.391548,40.373714 53.943035,45.582783 65.393967,50.996109 
	C66.817535,51.669086 68.169823,52.492836 70.912979,53.985657 
	C46.902008,53.985657 24.419613,53.985657 1.468609,53.992828 
	C1.000000,42.645771 1.000000,31.291544 1.000000,19.468658 
z"/>
<path fill="#C91531" opacity="1.000000" stroke="none" 
	d="
M318.500000,160.000000 
	C316.495697,159.059753 315.056732,157.988907 313.477417,157.198578 
	C281.840393,141.366913 250.186142,125.569664 218.541138,109.753952 
	C217.286499,109.126900 216.088699,108.386116 213.767548,107.082138 
	C226.514053,107.078407 237.503555,106.509705 248.538483,112.598961 
	C271.337891,125.180031 295.003021,136.192307 318.656006,147.924927 
	C319.000000,152.000000 319.000000,156.000000 318.500000,160.000000 
z"/>
<path fill="#C91532" opacity="1.000000" stroke="none" 
	d="
M1.500000,1.000000 
	C3.507718,1.937781 4.951567,3.003165 6.532584,3.794501 
	C38.176434,19.632971 69.837120,35.437790 101.488747,51.260735 
	C102.740761,51.886631 103.936806,52.624489 106.195625,53.891834 
	C93.494751,53.968441 82.501740,54.474335 71.469376,48.393826 
	C48.661938,35.823452 24.999821,24.803797 1.344616,13.073170 
	C1.000000,9.000000 1.000000,5.000000 1.500000,1.000000 
z"/>
<path fill="#000961" opacity="1.000000" stroke="none" 
	d="
M132.250000,160.000000 
	C132.000198,146.574692 132.026276,133.149261 131.972000,119.724167 
	C131.964096,117.766457 131.572754,115.810295 131.185837,113.480637 
	C135.193100,110.482437 133.218094,114.612015 133.224487,115.424103 
	C133.339188,129.981293 133.289169,144.539764 133.137238,159.548981 
	C133.000000,160.000000 132.500000,160.000000 132.250000,160.000000 
z"/>
<path fill="#000961" opacity="1.000000" stroke="none" 
	d="
M188.667877,112.822266 
	C188.661148,115.174980 188.057678,117.266327 188.043823,119.361565 
	C187.956284,132.594788 187.999466,145.828873 187.999756,159.531342 
	C188.000000,160.000000 187.500000,160.000000 187.250000,160.000000 
	C186.896011,144.589447 186.779449,129.178909 186.757690,113.768242 
	C186.757111,113.367134 187.791840,112.964569 188.667877,112.822266 
z"/>
<path fill="#000961" opacity="1.000000" stroke="none" 
	d="
M187.750000,1.000000 
	C187.999802,14.431548 187.973465,27.863203 188.028259,41.294525 
	C188.036240,43.252930 188.431427,45.209751 188.817444,47.543167 
	C184.811951,50.503601 186.781815,46.404385 186.775330,45.582573 
	C186.660767,31.023178 186.711060,16.462488 186.862869,1.451039 
	C187.000000,1.000000 187.500000,1.000000 187.750000,1.000000 
z"/>
<path fill="#000961" opacity="1.000000" stroke="none" 
	d="
M131.334076,48.146469 
	C131.338211,45.799812 131.942245,43.710564 131.956116,41.617409 
	C132.043701,28.391193 132.000458,15.164110 132.000214,1.468657 
	C132.000000,1.000000 132.500000,1.000000 132.750000,1.000000 
	C133.103836,16.408545 133.219925,31.817070 133.242142,47.225731 
	C133.242706,47.617085 132.211258,48.009930 131.334076,48.146469 
z"/>
<path fill="#C50018" opacity="1.000000" stroke="none" 
	d="
M319.000000,95.750000 
	C318.832550,96.039146 318.665070,96.078300 318.249146,96.048042 
	C318.145294,95.691216 318.342682,95.446312 318.796387,95.121964 
	C319.000000,95.000000 319.000000,95.500000 319.000000,95.750000 
z"/>
<path fill="#C50018" opacity="1.000000" stroke="none" 
	d="
M1.870829,95.778610 
	C1.833462,96.024467 1.667883,96.070702 1.251152,96.058464 
	C1.000000,96.000000 1.000000,95.500000 1.000000,95.250000 
	C1.295147,95.131927 1.542686,95.324921 1.870829,95.778610 
z"/>
<path fill="#C50018" opacity="1.000000" stroke="none" 
	d="
M318.129089,65.221390 
	C318.166412,64.975548 318.332001,64.929321 318.748810,64.941551 
	C319.000000,65.000000 319.000000,65.500000 319.000000,65.750000 
	C318.704865,65.868034 318.457306,65.675041 318.129089,65.221390 
z"/>
<path fill="#C50018" opacity="1.000000" stroke="none" 
	d="
M1.000000,65.250000 
	C1.167426,64.960861 1.334851,64.921715 1.750716,64.951965 
	C1.854615,65.308815 1.657287,65.553726 1.203586,65.878052 
	C1.000000,66.000000 1.000000,65.500000 1.000000,65.250000 
z"/>
<path fill="#C50018" opacity="1.000000" stroke="none" 
	d="
M176.873932,95.867203 
	C176.997177,95.969406 176.538727,96.128006 176.300049,96.171127 
	C176.189880,95.839020 176.419647,95.689270 176.873932,95.867203 
z"/>
<path fill="#C50018" opacity="1.000000" stroke="none" 
	d="
M143.856689,96.072952 
	C143.938431,96.213409 143.461212,96.127419 143.232025,96.048218 
	C143.278351,95.665947 143.535721,95.653770 143.856689,96.072952 
z"/>
<path fill="#C50018" opacity="1.000000" stroke="none" 
	d="
M176.143311,64.927078 
	C176.061569,64.786629 176.538773,64.872620 176.767960,64.951813 
	C176.997147,65.031006 176.597488,65.267464 176.597488,65.267464 
	C176.597488,65.267464 176.225052,65.067535 176.143311,64.927078 
z"/>
<path fill="#C50018" opacity="1.000000" stroke="none" 
	d="
M143.126068,65.132782 
	C143.002823,65.030602 143.461273,64.872009 143.699951,64.828888 
	C143.810120,65.161003 143.580353,65.310745 143.126068,65.132782 
z"/>
</svg>