<svg version="1.1" id="Layer_1" xmlns="http://www.w3.org/2000/svg" xmlns:xlink="http://www.w3.org/1999/xlink" x="0px" y="0px"
	 width="100%" viewBox="0 0 290 174" enable-background="new 0 0 290 174" xml:space="preserve">
<path fill="#032869" opacity="1.000000" stroke="none" 
	d="
M1.000000,93.000000 
	C1.000000,62.406017 1.000000,31.812035 1.000000,1.000000 
	C31.687218,1.000000 62.374950,1.000000 93.596046,1.452977 
	C94.236816,4.944866 94.344223,7.983778 94.365448,11.263607 
	C94.326248,11.837176 94.373222,12.169827 94.323654,12.986902 
	C94.292824,17.027004 94.358559,20.582682 94.325577,24.576643 
	C94.288818,28.401024 94.350769,31.787121 94.337875,35.625587 
	C94.315681,39.884277 94.368332,43.690598 94.350800,47.739819 
	C94.337418,48.313755 94.394218,48.644791 94.347710,49.407612 
	C94.315071,51.902184 94.385735,53.964966 94.362610,56.328293 
	C94.321709,57.245045 94.374603,57.861252 94.330818,58.960011 
	C94.259911,62.672314 94.285690,65.902061 94.243866,69.409363 
	C94.252007,69.863411 94.327736,70.039894 94.316696,70.653793 
	C94.294563,74.395119 94.359200,77.699036 94.324684,81.454117 
	C94.140610,85.350861 94.055679,88.796432 93.576187,92.370132 
	C92.229820,92.699631 91.278000,93.076942 90.326218,93.076851 
	C60.550812,93.073883 30.775406,93.034134 1.000000,93.000000 
M11.900797,8.738667 
	C10.291703,9.369072 8.682610,9.999476 7.923248,10.296977 
	C8.703864,12.981127 9.474821,15.632069 10.214662,18.176016 
	C10.847260,17.800806 12.232371,16.979259 13.563163,16.189932 
	C14.927612,16.993570 16.234377,17.763231 16.845379,18.123102 
	C17.609480,15.477688 18.332901,12.973115 18.965307,10.783644 
	C17.302759,9.562355 15.176177,8.000192 13.106742,6.480008 
	C12.995305,6.706651 12.634185,7.441103 11.900797,8.738667 
M78.150360,70.165894 
	C79.663345,69.684982 81.176331,69.204079 82.825584,68.679855 
	C83.850090,69.318573 85.051140,70.067352 85.709686,70.477921 
	C86.504021,67.763725 87.271751,65.140442 87.789848,63.370129 
	C85.898468,61.874298 83.917236,60.307407 82.530884,59.210995 
	C80.685471,60.518028 78.488762,62.073864 77.295120,62.919273 
	C77.618713,65.301437 77.898834,67.363533 78.150360,70.165894 
M28.857592,61.198925 
	C28.426687,60.140644 27.995781,59.082359 27.878258,58.793728 
	C25.838963,60.361855 23.675884,62.025169 21.961367,63.343555 
	C22.571871,65.399910 23.310457,67.887680 23.818865,69.600143 
	C25.872997,69.600143 28.348354,69.600143 30.521538,69.600143 
	C31.247734,67.714699 32.261093,65.083687 33.197800,62.651691 
	C31.994913,62.419186 30.577358,62.145187 28.857592,61.198925 
M57.847130,70.242935 
	C58.097134,70.346733 58.340702,70.489967 58.600731,70.532440 
	C58.688896,70.546844 58.895733,70.319191 58.917923,70.181183 
	C59.320148,67.679596 59.702423,65.174805 60.023102,63.097301 
	C58.369053,61.937603 56.231030,60.438576 54.938725,59.532505 
	C52.968239,60.831608 50.842327,62.233177 49.376820,63.199356 
	C50.120773,65.302078 50.907528,67.525764 51.476166,69.132973 
	C53.393063,69.376068 55.288406,69.616432 57.847130,70.242935 
M72.628929,18.546209 
	C72.995461,15.879471 73.362000,13.212732 73.702126,10.738176 
	C72.311119,9.747048 70.145653,8.204097 68.568207,7.080126 
	C66.808228,8.293167 64.661201,9.772973 63.057507,10.878292 
	C63.730053,13.162966 64.424904,15.523413 64.770164,16.696291 
	C67.375587,17.262836 69.687141,17.765478 72.628929,18.546209 
M19.381285,45.042496 
	C15.651383,46.115002 14.618369,43.498878 13.990697,41.503868 
	C11.873256,42.980549 9.687660,44.504761 7.862544,45.777576 
	C8.541829,47.834881 9.413801,50.475758 10.086645,52.513554 
	C12.107120,52.326645 14.441083,52.110737 16.137167,51.953838 
	C17.440834,49.715580 18.725018,47.510773 19.381285,45.042496 
M65.899963,44.617336 
	C64.636299,44.842369 63.372631,45.067402 62.660282,45.194260 
	C63.515217,47.756794 64.390961,50.381710 65.157143,52.678204 
	C66.997444,52.320850 69.287361,51.876190 71.130135,51.518356 
	C72.412422,49.390800 73.653099,47.332264 74.417778,46.063511 
	C72.367012,44.639069 70.180328,43.120228 68.055885,41.644608 
	C67.823975,41.983173 67.099083,43.041443 65.899963,44.617336 
M35.058903,11.585411 
	C36.144104,13.545133 37.229305,15.504854 38.080479,17.041954 
	C40.151798,17.137043 42.476822,17.243776 44.226593,17.324102 
	C45.121059,15.086343 46.067520,12.718510 46.777752,10.941675 
	C44.986958,9.763018 42.879765,8.376117 41.260479,7.310343 
	C39.229126,8.450425 36.976433,9.714735 35.058903,11.585411 
M69.036247,76.159294 
	C68.934929,76.028091 68.853401,75.868813 68.723930,75.777557 
	C68.659622,75.732239 68.469337,75.773010 68.400307,75.840523 
	C66.621315,77.580589 64.850815,79.329338 63.076153,81.079224 
	C63.521431,82.582893 64.253548,85.055222 64.823334,86.979355 
	C67.195999,86.979355 69.903076,86.979355 72.657372,86.979355 
	C70.344650,84.372055 72.522400,82.336464 74.312927,81.252998 
	C72.608948,79.725365 70.973709,78.259369 69.036247,76.159294 
M29.244343,27.470184 
	C28.675945,26.117422 28.107548,24.764660 27.855850,24.165630 
	C25.836174,25.701694 23.658377,27.358015 21.528345,28.978006 
	C25.289928,29.708273 23.616989,32.989140 23.230217,34.856560 
	C26.118540,34.856560 28.799589,34.856560 30.669014,34.856560 
	C31.354933,32.719814 32.129982,30.305410 32.941669,27.776884 
	C32.222919,27.776884 31.079449,27.776884 29.244343,27.470184 
M37.751247,49.517506 
	C37.492470,50.572994 37.233688,51.628483 37.149891,51.970276 
	C39.807499,51.970276 42.258133,51.970276 44.331173,51.970276 
	C45.055084,50.054596 45.994564,47.568466 46.645542,45.845787 
	C44.795708,44.571884 42.681423,43.115864 41.215317,42.106216 
	C39.226780,43.378242 37.091312,44.744251 34.965748,46.103928 
	C35.685825,46.788910 36.739254,47.790997 37.751247,49.517506 
M43.858574,87.608055 
	C44.015564,87.663200 44.169765,87.748734 44.330463,87.763496 
	C44.450710,87.774529 44.674908,87.716965 44.690441,87.651451 
	C45.291069,85.117897 45.872963,82.579895 46.311710,80.674812 
	C44.697716,79.465744 42.663269,77.941704 40.375359,76.227791 
	C40.957535,80.324501 37.632084,80.073975 35.438736,80.127327 
	C36.309288,82.631065 37.162067,85.083687 37.884594,87.161705 
	C39.304527,87.161705 41.286373,87.161705 43.858574,87.608055 
M86.106277,30.872551 
	C87.103683,30.160397 88.101097,29.448240 88.350235,29.270353 
	C85.888794,27.293417 83.917397,25.710066 82.472992,24.549973 
	C80.839249,25.768557 78.753967,27.323942 77.088951,28.565851 
	C77.664421,30.550198 78.393700,33.064960 78.887794,34.768715 
	C81.176781,34.768715 83.855545,34.768715 86.436378,34.768715 
	C86.307968,34.110165 86.059845,32.837742 86.106277,30.872551 
M19.832977,80.955765 
	C19.878098,80.796333 19.961592,80.635315 19.955059,80.478027 
	C19.950583,80.370346 19.829079,80.183853 19.745684,80.175575 
	C18.286129,80.030525 16.824379,79.907578 15.433947,79.786018 
	C14.815765,78.311974 14.253851,76.972099 14.007895,76.385620 
	C11.852933,77.897331 9.651824,79.441414 7.964473,80.625099 
	C8.580416,82.691696 9.331641,85.212196 9.947850,87.279686 
	C12.013295,86.997078 14.367449,86.674957 16.127863,86.434082 
	C17.237877,84.647598 18.256224,83.008644 19.832977,80.955765 
M51.482960,31.729979 
	C51.305351,32.680336 51.127743,33.630692 50.979607,34.423367 
	C53.782909,34.760700 56.320457,35.066051 58.047337,35.273857 
	C58.867821,32.719746 59.644909,30.300726 60.167446,28.674097 
	C58.294132,27.234501 56.213173,25.635336 54.797440,24.547379 
	C53.104225,25.839264 51.067890,27.392941 49.008263,28.964390 
	C49.325546,29.262487 50.250633,30.131632 51.482960,31.729979 
z"/>
<path fill="#FFFFFF" opacity="1.000000" stroke="none" 
	d="
M291.000000,153.000000 
	C291.000000,156.361282 291.000000,159.722580 290.759399,163.381409 
	C290.334381,163.735336 290.149994,163.791733 289.513855,163.719147 
	C194.375854,163.573822 99.689537,163.556641 5.003225,163.552460 
	C4.014595,163.552414 3.025957,163.723251 1.750731,163.708435 
	C1.309427,163.735046 1.154713,163.867523 1.000000,164.000000 
	C1.000000,160.307098 1.000000,156.614182 1.262355,152.423187 
	C1.680442,151.841644 1.836173,151.758209 2.456805,151.738770 
	C96.657539,151.810089 190.393372,151.816574 284.129211,151.830093 
	C286.124908,151.830383 288.120605,151.911438 290.127197,152.216644 
	C290.425385,152.652328 290.712677,152.826172 291.000000,153.000000 
z"/>
<path fill="#FFFEFE" opacity="1.000000" stroke="none" 
	d="
M291.000000,129.000000 
	C291.000000,132.361282 291.000000,135.722580 290.742004,139.596466 
	C290.325531,140.185165 290.167023,140.261246 289.544037,140.269806 
	C194.380142,140.194626 99.680733,140.186447 4.981319,140.185822 
	C3.986068,140.185822 2.990816,140.284729 1.756778,140.223297 
	C1.345328,140.072754 1.172664,140.036377 1.000000,140.000000 
	C1.000000,136.307098 1.000000,132.614182 1.249985,128.465195 
	C1.659747,127.961624 1.819525,127.914139 2.443150,127.947273 
	C76.121483,128.035187 149.335968,128.035248 222.550461,128.054123 
	C245.012573,128.059906 267.474701,128.117218 290.018127,128.391602 
	C290.399658,128.754837 290.699829,128.877426 291.000000,129.000000 
z"/>
<path fill="#FFFFFF" opacity="1.000000" stroke="none" 
	d="
M1.000000,117.000000 
	C1.000000,113.307091 1.000000,109.614182 1.253342,105.444458 
	C1.663344,104.903603 1.820003,104.839577 2.441912,104.846413 
	C15.555167,104.924416 28.203173,104.934601 40.851177,104.938194 
	C123.895119,104.961792 206.939056,104.983971 290.042786,105.265182 
	C290.401703,105.682503 290.700867,105.841248 291.000000,106.000000 
	C291.000000,109.361290 291.000000,112.722572 290.758362,116.388092 
	C290.334229,116.748383 290.151672,116.804443 289.516785,116.733437 
	C194.210953,116.591003 99.357460,116.574982 4.503967,116.571121 
	C3.681048,116.571091 2.858122,116.734520 1.750010,116.713066 
	C1.309881,116.736328 1.154940,116.868164 1.000000,117.000000 
z"/>
<path fill="#BF0B30" opacity="1.000000" stroke="none" 
	d="
M1.995565,140.337463 
	C2.990816,140.284729 3.986068,140.185822 4.981319,140.185822 
	C99.680733,140.186447 194.380142,140.194626 289.660858,140.441284 
	C290.465820,140.855408 290.718445,140.961990 291.000000,141.000000 
	C291.000000,144.361282 291.000000,147.722580 290.779663,151.519348 
	C290.559326,151.954819 290.116302,151.954803 290.116302,151.954803 
	C288.120605,151.911438 286.124908,151.830383 284.129211,151.830093 
	C190.393372,151.816574 96.657539,151.810089 2.340748,151.565308 
	C1.536148,151.149902 1.282885,151.040634 1.000000,151.000000 
	C1.000000,147.969406 1.000000,144.938812 1.200764,141.399689 
	C1.680712,140.793686 1.878725,140.609116 1.995565,140.337463 
z"/>
<path fill="#BF1034" opacity="1.000000" stroke="none" 
	d="
M289.983002,105.006615 
	C206.939056,104.983971 123.895119,104.961792 40.851177,104.938194 
	C28.203173,104.934601 15.555167,104.924416 2.324710,104.666313 
	C1.535158,104.204857 1.287739,104.066406 1.000000,104.000000 
	C1.000000,100.638710 1.000000,97.277428 1.000000,93.458069 
	C30.775406,93.034134 60.550812,93.073883 90.326218,93.076851 
	C91.278000,93.076942 92.229820,92.699631 93.815353,92.648148 
	C96.256203,92.931931 98.063271,93.182266 99.870422,93.182861 
	C161.224106,93.203125 222.577805,93.197289 283.931488,93.210312 
	C285.917877,93.210739 287.904175,93.368950 289.993713,93.766953 
	C290.397949,94.386871 290.698975,94.693436 291.000000,95.000000 
	C291.000000,98.030594 291.000000,101.061188 290.745728,104.544479 
	C290.321991,105.000320 290.152496,105.003464 289.983002,105.006615 
z"/>
<path fill="#BF0B30" opacity="1.000000" stroke="none" 
	d="
M2.037322,163.814331 
	C3.025957,163.723251 4.014595,163.552414 5.003225,163.552460 
	C99.689537,163.556641 194.375854,163.573822 289.622131,163.963806 
	C290.454742,164.558273 290.727356,164.779144 291.000000,165.000000 
	C291.000000,168.328232 291.000000,171.656479 291.000000,174.982193 
	C194.333328,174.979675 97.666664,174.979675 1.000000,174.979675 
	C1.000000,171.963943 1.000000,168.968536 1.236603,165.352249 
	C1.661244,164.425674 1.849282,164.120010 2.037322,163.814331 
z"/>
<path fill="#BF0B30" opacity="1.000000" stroke="none" 
	d="
M2.035200,116.821640 
	C2.858122,116.734520 3.681048,116.571091 4.503967,116.571121 
	C99.357460,116.574982 194.210953,116.591003 289.624756,116.976067 
	C290.456696,117.563850 290.728333,117.781929 291.000000,118.000000 
	C291.000000,120.700012 291.000000,123.400032 290.763855,126.680717 
	C290.330719,127.557915 290.133759,127.854439 289.936798,128.150955 
	C267.474701,128.117218 245.012573,128.059906 222.550461,128.054123 
	C149.335968,128.035248 76.121483,128.035187 2.331117,127.751190 
	C1.553889,127.236115 1.302143,127.077957 1.000000,127.000000 
	C1.000000,124.299988 1.000000,121.599968 1.235883,118.316727 
	C1.659577,117.429543 1.847389,117.125587 2.035200,116.821640 
z"/>
<path fill="#FEFEFE" opacity="1.000000" stroke="none" 
	d="
M289.890533,93.453598 
	C287.904175,93.368950 285.917877,93.210739 283.931488,93.210312 
	C222.577805,93.197289 161.224106,93.203125 99.870422,93.182861 
	C98.063271,93.182266 96.256203,92.931931 94.209923,92.520020 
	C94.055679,88.796432 94.140610,85.350861 94.495972,81.491974 
	C94.766411,81.078667 95.052635,80.874496 95.513382,80.936554 
	C158.912735,81.006126 221.851379,81.004333 284.789948,81.062309 
	C286.860260,81.064217 288.929993,81.673721 291.000000,82.000000 
	C291.000000,85.692909 291.000000,89.385818 290.811035,93.223221 
	C290.378235,93.396355 290.134399,93.424980 289.890533,93.453598 
z"/>
<path fill="#FFFFFF" opacity="1.000000" stroke="none" 
	d="
M94.424286,24.138359 
	C94.358559,20.582682 94.292824,17.027004 94.535240,13.042002 
	C95.251915,12.459012 95.660454,12.305348 96.518517,12.280329 
	C160.311935,12.425277 223.655807,12.442821 286.999695,12.446508 
	C287.987457,12.446567 288.975220,12.275999 290.249329,12.290604 
	C290.690430,12.264099 290.845215,12.132050 291.000000,12.000000 
	C291.000000,15.692909 291.000000,19.385818 290.770416,23.570269 
	C290.215729,24.074966 289.939636,24.198040 289.679199,24.434299 
	C289.645782,24.437569 289.578705,24.438059 289.149963,24.327921 
	C225.937088,24.205303 163.152954,24.189384 100.368835,24.204512 
	C99.085632,24.204821 97.802505,24.566034 96.431877,24.718302 
	C96.344406,24.677727 96.269272,24.500124 96.070648,24.355762 
	C95.389442,24.187052 94.906860,24.162706 94.424286,24.138359 
z"/>
<path fill="#FFFFFF" opacity="1.000000" stroke="none" 
	d="
M94.420990,47.496918 
	C94.368332,43.690598 94.315681,39.884277 94.517517,35.651672 
	C94.772011,35.225391 95.031525,34.970783 95.493591,35.032623 
	C114.451942,35.099922 132.948242,35.098907 151.444534,35.112110 
	C197.600311,35.145058 243.756088,35.184467 289.959412,35.489044 
	C290.337982,36.171204 290.668976,36.585602 291.000000,37.000000 
	C291.000000,39.700012 291.000000,42.400028 290.800720,45.655106 
	C290.389374,46.590721 290.177338,46.971268 289.506287,47.428074 
	C226.702621,47.516365 164.357971,47.525578 102.013336,47.553295 
	C100.030640,47.554176 98.048035,47.745243 95.882462,47.722565 
	C95.273354,47.563961 94.847176,47.530437 94.420990,47.496918 
z"/>
<path fill="#FFFFFF" opacity="1.000000" stroke="none" 
	d="
M94.311462,69.131813 
	C94.285690,65.902061 94.259911,62.672314 94.759155,58.914261 
	C158.705338,58.350788 222.126495,58.317913 285.547638,58.268803 
	C287.365143,58.267395 289.182556,58.093483 291.000000,58.000000 
	C291.000000,61.692909 291.000000,65.385818 290.531311,69.542068 
	C256.144775,70.015739 222.226898,70.046127 188.309052,70.030510 
	C157.219757,70.016197 126.130501,69.952225 94.968758,69.733170 
	C94.792976,69.288361 94.598038,69.146896 94.311462,69.131813 
z"/>
<path fill="#BF0B30" opacity="1.000000" stroke="none" 
	d="
M289.962982,12.185061 
	C288.975220,12.275999 287.987457,12.446567 286.999695,12.446508 
	C223.655807,12.442821 160.311935,12.425277 96.398468,12.044521 
	C95.369804,11.460942 94.910721,11.241816 94.451630,11.022689 
	C94.344223,7.983778 94.236816,4.944866 94.064705,1.452977 
	C159.666672,1.000000 225.333344,1.000000 291.000000,1.000000 
	C291.000000,4.040615 291.000000,7.033743 290.763458,10.647644 
	C290.338959,11.573966 290.150970,11.879515 289.962982,12.185061 
z"/>
<path fill="#C00D31" opacity="1.000000" stroke="none" 
	d="
M95.041222,69.910133 
	C126.130501,69.952225 157.219757,70.016197 188.309052,70.030510 
	C222.226898,70.046127 256.144775,70.015739 290.531311,70.002701 
	C291.000000,73.030594 291.000000,76.061188 290.531342,79.546173 
	C226.970840,79.999596 163.878998,79.990921 100.787178,80.034462 
	C98.875473,80.035789 96.964142,80.582214 95.052635,80.874496 
	C95.052635,80.874496 94.766411,81.078667 94.595123,81.040802 
	C94.359200,77.699036 94.294563,74.395119 94.486320,70.599159 
	C94.742714,70.107109 95.041222,69.910133 95.041222,69.910133 
z"/>
<path fill="#C01336" opacity="1.000000" stroke="none" 
	d="
M95.031525,34.970779 
	C95.031525,34.970783 94.772011,35.225391 94.592361,35.199303 
	C94.350769,31.787121 94.288818,28.401024 94.325577,24.576643 
	C94.906860,24.162706 95.389442,24.187052 95.916519,24.506958 
	C95.861229,24.895945 95.761429,24.989368 95.661636,25.082794 
	C95.947540,24.974823 96.233444,24.866848 96.519348,24.758877 
	C97.802505,24.566034 99.085632,24.204821 100.368835,24.204512 
	C163.152954,24.189384 225.937088,24.205303 289.335388,24.636278 
	C290.299744,25.369846 290.649872,25.684921 291.000000,25.999996 
	C291.000000,28.370558 291.000000,30.741114 290.531342,33.552616 
	C226.945724,33.992840 163.828781,33.983597 100.711861,34.032505 
	C98.818176,34.033974 96.924957,34.644318 95.031525,34.970779 
z"/>
<path fill="#BE0B30" opacity="1.000000" stroke="none" 
	d="
M96.065384,47.847649 
	C98.048035,47.745243 100.030640,47.554176 102.013336,47.553295 
	C164.357971,47.525578 226.702621,47.516365 289.475769,47.596935 
	C289.904266,47.689541 289.995850,48.020287 290.105347,48.236694 
	C290.416168,48.722092 290.677887,48.904388 291.000000,49.000000 
	C291.000000,51.370556 291.000000,53.741116 290.531342,56.555729 
	C228.642075,56.999756 167.221451,57.016891 105.800903,56.958084 
	C102.019112,56.954464 98.237892,56.351734 94.456406,56.027752 
	C94.385735,53.964966 94.315071,51.902184 94.607956,49.366776 
	C95.336136,48.545315 95.700760,48.196484 96.065384,47.847649 
z"/>
<path fill="#BD001D" opacity="1.000000" stroke="none" 
	d="
M94.362610,56.328293 
	C98.237892,56.351734 102.019112,56.954464 105.800903,56.958084 
	C167.221451,57.016891 228.642075,56.999756 290.531342,56.999893 
	C291.000000,57.000000 291.000000,57.500000 291.000000,57.750000 
	C289.182556,58.093483 287.365143,58.267395 285.547638,58.268803 
	C222.126495,58.317913 158.705338,58.350788 94.855850,58.431709 
	C94.374603,57.861252 94.321709,57.245045 94.362610,56.328293 
z"/>
<path fill="#B7000B" opacity="1.000000" stroke="none" 
	d="
M95.513382,80.936554 
	C96.964142,80.582214 98.875473,80.035789 100.787178,80.034462 
	C163.878998,79.990921 226.970840,79.999596 290.531342,80.000282 
	C291.000000,80.444443 291.000000,80.888893 291.000000,81.666672 
	C288.929993,81.673721 286.860260,81.064217 284.789948,81.062309 
	C221.851379,81.004333 158.912735,81.006126 95.513382,80.936554 
z"/>
<path fill="#BC0013" opacity="1.000000" stroke="none" 
	d="
M95.493591,35.032623 
	C96.924957,34.644318 98.818176,34.033974 100.711861,34.032505 
	C163.828781,33.983597 226.945724,33.992840 290.531342,33.996780 
	C291.000000,34.000000 291.000000,34.500000 290.718567,34.759052 
	C290.261993,35.085831 290.086914,35.153557 289.911865,35.221283 
	C243.756088,35.184467 197.600311,35.145058 151.444534,35.112110 
	C132.948242,35.098907 114.451942,35.099922 95.493591,35.032623 
z"/>
<path fill="#BE012B" opacity="1.000000" stroke="none" 
	d="
M290.018127,128.391602 
	C290.133759,127.854439 290.330719,127.557915 290.763855,127.130692 
	C291.000000,127.444450 291.000000,127.888893 291.000000,128.666672 
	C290.699829,128.877426 290.399658,128.754837 290.018127,128.391602 
z"/>
<path fill="#E4B0B8" opacity="1.000000" stroke="none" 
	d="
M289.934784,47.520679 
	C290.177338,46.971268 290.389374,46.590721 290.800720,46.105087 
	C291.000000,46.444447 291.000000,46.888889 290.747772,47.612846 
	C290.328979,47.935001 290.162415,47.977646 289.995850,48.020287 
	C289.995850,48.020287 289.904266,47.689541 289.934784,47.520679 
z"/>
<path fill="#E4B0B8" opacity="1.000000" stroke="none" 
	d="
M289.959412,35.489044 
	C290.086914,35.153557 290.261993,35.085831 290.718567,35.009052 
	C291.000000,35.444447 291.000000,35.888889 291.000000,36.666668 
	C290.668976,36.585602 290.337982,36.171204 289.959412,35.489044 
z"/>
<path fill="#C42946" opacity="1.000000" stroke="none" 
	d="
M290.127197,152.216644 
	C290.116302,151.954803 290.559326,151.954819 290.779663,151.977417 
	C291.000000,152.000000 291.000000,152.500000 291.000000,152.750000 
	C290.712677,152.826172 290.425385,152.652328 290.127197,152.216644 
z"/>
<path fill="#BD0023" opacity="1.000000" stroke="none" 
	d="
M1.750731,163.708435 
	C1.849282,164.120010 1.661244,164.425674 1.236603,164.865677 
	C1.000000,165.000000 1.000000,164.500000 1.000000,164.250000 
	C1.154713,163.867523 1.309427,163.735046 1.750731,163.708435 
z"/>
<path fill="#C42946" opacity="1.000000" stroke="none" 
	d="
M1.000000,151.250000 
	C1.282885,151.040634 1.536148,151.149902 1.875846,151.501297 
	C1.836173,151.758209 1.680442,151.841644 1.262355,151.962555 
	C1.000000,152.000000 1.000000,151.500000 1.000000,151.250000 
z"/>
<path fill="#BE002A" opacity="1.000000" stroke="none" 
	d="
M291.000000,25.749996 
	C290.649872,25.684921 290.299744,25.369846 289.764160,24.746416 
	C289.578705,24.438059 289.645782,24.437569 289.978180,24.629637 
	C290.540405,24.881136 290.770203,24.940569 291.000000,25.000000 
	C291.000000,25.000000 291.000000,25.500000 291.000000,25.749996 
z"/>
<path fill="#C42946" opacity="1.000000" stroke="none" 
	d="
M291.000000,140.750000 
	C290.718445,140.961990 290.465820,140.855408 290.125336,140.508789 
	C290.167023,140.261246 290.325531,140.185165 290.742004,140.054535 
	C291.000000,140.000000 291.000000,140.500000 291.000000,140.750000 
z"/>
<path fill="#C42946" opacity="1.000000" stroke="none" 
	d="
M1.756779,140.223297 
	C1.878725,140.609116 1.680712,140.793686 1.200764,140.945587 
	C1.000000,141.000000 1.000000,140.500000 1.000000,140.250000 
	C1.172664,140.036377 1.345328,140.072754 1.756779,140.223297 
z"/>
<path fill="#BD0023" opacity="1.000000" stroke="none" 
	d="
M291.000000,164.750000 
	C290.727356,164.779144 290.454742,164.558273 290.073853,164.092773 
	C290.149994,163.791733 290.334381,163.735336 290.759399,163.839478 
	C291.000000,164.000000 291.000000,164.500000 291.000000,164.750000 
z"/>
<path fill="#BE012B" opacity="1.000000" stroke="none" 
	d="
M1.000000,127.250000 
	C1.302143,127.077957 1.553889,127.236115 1.867270,127.670563 
	C1.819525,127.914139 1.659747,127.961624 1.249985,128.004547 
	C1.000000,128.000000 1.000000,127.500000 1.000000,127.250000 
z"/>
<path fill="#BD0023" opacity="1.000000" stroke="none" 
	d="
M291.000000,117.750000 
	C290.728333,117.781929 290.456696,117.563850 290.077087,117.103142 
	C290.151672,116.804443 290.334229,116.748383 290.758362,116.846161 
	C291.000000,117.000000 291.000000,117.500000 291.000000,117.750000 
z"/>
<path fill="#BD0023" opacity="1.000000" stroke="none" 
	d="
M290.249329,12.290606 
	C290.150970,11.879515 290.338959,11.573966 290.763458,11.134209 
	C291.000000,11.000000 291.000000,11.500000 291.000000,11.750000 
	C290.845215,12.132050 290.690430,12.264099 290.249329,12.290606 
z"/>
<path fill="#BD0023" opacity="1.000000" stroke="none" 
	d="
M1.750011,116.713066 
	C1.847389,117.125587 1.659577,117.429543 1.235883,117.866745 
	C1.000000,118.000000 1.000000,117.500000 1.000000,117.250000 
	C1.154940,116.868164 1.309881,116.736328 1.750011,116.713066 
z"/>
<path fill="#C2163B" opacity="1.000000" stroke="none" 
	d="
M290.042786,105.265182 
	C290.152496,105.003464 290.321991,105.000320 290.745728,104.998581 
	C291.000000,105.000000 291.000000,105.500000 291.000000,105.750000 
	C290.700867,105.841248 290.401703,105.682503 290.042786,105.265182 
z"/>
<path fill="#C2163B" opacity="1.000000" stroke="none" 
	d="
M1.000000,104.250000 
	C1.287739,104.066406 1.535158,104.204857 1.859460,104.595444 
	C1.820003,104.839577 1.663344,104.903603 1.253342,104.983818 
	C1.000000,105.000000 1.000000,104.500000 1.000000,104.250000 
z"/>
<path fill="#BE002A" opacity="1.000000" stroke="none" 
	d="
M289.993713,93.766953 
	C290.134399,93.424980 290.378235,93.396355 290.811035,93.683861 
	C291.000000,94.000000 291.000000,94.500000 291.000000,94.750000 
	C290.698975,94.693436 290.397949,94.386871 289.993713,93.766953 
z"/>
<path fill="#C01336" opacity="1.000000" stroke="none" 
	d="
M291.000000,24.750000 
	C290.770203,24.940569 290.540405,24.881136 290.011597,24.626369 
	C289.939636,24.198040 290.215729,24.074966 290.770416,24.030905 
	C291.000000,24.000000 291.000000,24.500000 291.000000,24.750000 
z"/>
<path fill="#BD0023" opacity="1.000000" stroke="none" 
	d="
M290.105347,48.236694 
	C290.162415,47.977646 290.328979,47.935001 290.747772,47.946175 
	C291.000000,48.000000 291.000000,48.500000 291.000000,48.750000 
	C290.677887,48.904388 290.416168,48.722092 290.105347,48.236694 
z"/>
<path fill="#E7EAEE" opacity="1.000000" stroke="none" 
	d="
M12.086931,8.457111 
	C12.634185,7.441103 12.995305,6.706651 13.106742,6.480008 
	C15.176177,8.000192 17.302759,9.562355 18.965307,10.783644 
	C18.332901,12.973115 17.609480,15.477688 16.845379,18.123102 
	C16.234377,17.763231 14.927612,16.993570 13.563163,16.189932 
	C12.232371,16.979259 10.847260,17.800806 10.214662,18.176016 
	C9.474821,15.632069 8.703864,12.981127 7.923248,10.296977 
	C8.682610,9.999476 10.291703,9.369072 12.086931,8.457111 
z"/>
<path fill="#DFE3E9" opacity="1.000000" stroke="none" 
	d="
M78.164658,69.795761 
	C77.898834,67.363533 77.618713,65.301437 77.295120,62.919273 
	C78.488762,62.073864 80.685471,60.518028 82.530884,59.210995 
	C83.917236,60.307407 85.898468,61.874298 87.789848,63.370129 
	C87.271751,65.140442 86.504021,67.763725 85.709686,70.477921 
	C85.051140,70.067352 83.850090,69.318573 82.825584,68.679855 
	C81.176331,69.204079 79.663345,69.684982 78.164658,69.795761 
z"/>
<path fill="#DFE3E9" opacity="1.000000" stroke="none" 
	d="
M29.008698,61.535057 
	C30.577358,62.145187 31.994913,62.419186 33.197800,62.651691 
	C32.261093,65.083687 31.247734,67.714699 30.521538,69.600143 
	C28.348354,69.600143 25.872997,69.600143 23.818865,69.600143 
	C23.310457,67.887680 22.571871,65.399910 21.961367,63.343555 
	C23.675884,62.025169 25.838963,60.361855 27.878258,58.793728 
	C27.995781,59.082359 28.426687,60.140644 29.008698,61.535057 
z"/>
<path fill="#EDF0F3" opacity="1.000000" stroke="none" 
	d="
M57.515442,70.049866 
	C55.288406,69.616432 53.393063,69.376068 51.476166,69.132973 
	C50.907528,67.525764 50.120773,65.302078 49.376820,63.199356 
	C50.842327,62.233177 52.968239,60.831608 54.938725,59.532505 
	C56.231030,60.438576 58.369053,61.937603 60.023102,63.097301 
	C59.702423,65.174805 59.320148,67.679596 58.917923,70.181183 
	C58.895733,70.319191 58.688896,70.546844 58.600731,70.532440 
	C58.340702,70.489967 58.097134,70.346733 57.515442,70.049866 
z"/>
<path fill="#E8EBEF" opacity="1.000000" stroke="none" 
	d="
M72.313812,18.407166 
	C69.687141,17.765478 67.375587,17.262836 64.770164,16.696291 
	C64.424904,15.523413 63.730053,13.162966 63.057507,10.878292 
	C64.661201,9.772973 66.808228,8.293167 68.568207,7.080126 
	C70.145653,8.204097 72.311119,9.747048 73.702126,10.738176 
	C73.362000,13.212732 72.995461,15.879471 72.313812,18.407166 
z"/>
<path fill="#EDF0F3" opacity="1.000000" stroke="none" 
	d="
M19.695242,45.174232 
	C18.725018,47.510773 17.440834,49.715580 16.137167,51.953838 
	C14.441083,52.110737 12.107120,52.326645 10.086645,52.513554 
	C9.413801,50.475758 8.541829,47.834881 7.862544,45.777576 
	C9.687660,44.504761 11.873256,42.980549 13.990697,41.503868 
	C14.618369,43.498878 15.651383,46.115002 19.695242,45.174232 
z"/>
<path fill="#EBEEF1" opacity="1.000000" stroke="none" 
	d="
M66.137085,44.358524 
	C67.099083,43.041443 67.823975,41.983173 68.055885,41.644608 
	C70.180328,43.120228 72.367012,44.639069 74.417778,46.063511 
	C73.653099,47.332264 72.412422,49.390800 71.130135,51.518356 
	C69.287361,51.876190 66.997444,52.320850 65.157143,52.678204 
	C64.390961,50.381710 63.515217,47.756794 62.660282,45.194260 
	C63.372631,45.067402 64.636299,44.842369 66.137085,44.358524 
z"/>
<path fill="#E5E9ED" opacity="1.000000" stroke="none" 
	d="
M34.891319,11.282228 
	C36.976433,9.714735 39.229126,8.450425 41.260479,7.310343 
	C42.879765,8.376117 44.986958,9.763018 46.777752,10.941675 
	C46.067520,12.718510 45.121059,15.086343 44.226593,17.324102 
	C42.476822,17.243776 40.151798,17.137043 38.080479,17.041954 
	C37.229305,15.504854 36.144104,13.545133 34.891319,11.282228 
z"/>
<path fill="#EDF0F3" opacity="1.000000" stroke="none" 
	d="
M69.187355,76.476334 
	C70.973709,78.259369 72.608948,79.725365 74.312927,81.252998 
	C72.522400,82.336464 70.344650,84.372055 72.657372,86.979355 
	C69.903076,86.979355 67.195999,86.979355 64.823334,86.979355 
	C64.253548,85.055222 63.521431,82.582893 63.076153,81.079224 
	C64.850815,79.329338 66.621315,77.580589 68.400307,75.840523 
	C68.469337,75.773010 68.659622,75.732239 68.723930,75.777557 
	C68.853401,75.868813 68.934929,76.028091 69.187355,76.476334 
z"/>
<path fill="#ECEEF2" opacity="1.000000" stroke="none" 
	d="
M29.590160,27.623535 
	C31.079449,27.776884 32.222919,27.776884 32.941669,27.776884 
	C32.129982,30.305410 31.354933,32.719814 30.669014,34.856560 
	C28.799589,34.856560 26.118540,34.856560 23.230217,34.856560 
	C23.616989,32.989140 25.289928,29.708273 21.528345,28.978006 
	C23.658377,27.358015 25.836174,25.701694 27.855850,24.165630 
	C28.107548,24.764660 28.675945,26.117422 29.590160,27.623535 
z"/>
<path fill="#EAEDF0" opacity="1.000000" stroke="none" 
	d="
M37.771965,49.155296 
	C36.739254,47.790997 35.685825,46.788910 34.965748,46.103928 
	C37.091312,44.744251 39.226780,43.378242 41.215317,42.106216 
	C42.681423,43.115864 44.795708,44.571884 46.645542,45.845787 
	C45.994564,47.568466 45.055084,50.054596 44.331173,51.970276 
	C42.258133,51.970276 39.807499,51.970276 37.149891,51.970276 
	C37.233688,51.628483 37.492470,50.572994 37.771965,49.155296 
z"/>
<path fill="#F0F2F5" opacity="1.000000" stroke="none" 
	d="
M43.563396,87.384880 
	C41.286373,87.161705 39.304527,87.161705 37.884594,87.161705 
	C37.162067,85.083687 36.309288,82.631065 35.438736,80.127327 
	C37.632084,80.073975 40.957535,80.324501 40.375359,76.227791 
	C42.663269,77.941704 44.697716,79.465744 46.311710,80.674812 
	C45.872963,82.579895 45.291069,85.117897 44.690441,87.651451 
	C44.674908,87.716965 44.450710,87.774529 44.330463,87.763496 
	C44.169765,87.748734 44.015564,87.663200 43.563396,87.384880 
z"/>
<path fill="#EEF1F4" opacity="1.000000" stroke="none" 
	d="
M85.959000,31.218933 
	C86.059845,32.837742 86.307968,34.110165 86.436378,34.768715 
	C83.855545,34.768715 81.176781,34.768715 78.887794,34.768715 
	C78.393700,33.064960 77.664421,30.550198 77.088951,28.565851 
	C78.753967,27.323942 80.839249,25.768557 82.472992,24.549973 
	C83.917397,25.710066 85.888794,27.293417 88.350235,29.270353 
	C88.101097,29.448240 87.103683,30.160397 85.959000,31.218933 
z"/>
<path fill="#F1F3F5" opacity="1.000000" stroke="none" 
	d="
M19.553774,81.162727 
	C18.256224,83.008644 17.237877,84.647598 16.127863,86.434082 
	C14.367449,86.674957 12.013295,86.997078 9.947850,87.279686 
	C9.331641,85.212196 8.580416,82.691696 7.964473,80.625099 
	C9.651824,79.441414 11.852933,77.897331 14.007895,76.385620 
	C14.253851,76.972099 14.815765,78.311974 15.433947,79.786018 
	C16.824379,79.907578 18.286129,80.030525 19.745684,80.175575 
	C19.829079,80.183853 19.950583,80.370346 19.955059,80.478027 
	C19.961592,80.635315 19.878098,80.796333 19.553774,81.162727 
z"/>
<path fill="#EBEEF2" opacity="1.000000" stroke="none" 
	d="
M51.329338,31.365377 
	C50.250633,30.131632 49.325546,29.262487 49.008263,28.964390 
	C51.067890,27.392941 53.104225,25.839264 54.797440,24.547379 
	C56.213173,25.635336 58.294132,27.234501 60.167446,28.674097 
	C59.644909,30.300726 58.867821,32.719746 58.047337,35.273857 
	C56.320457,35.066051 53.782909,34.760700 50.979607,34.423367 
	C51.127743,33.630692 51.305351,32.680336 51.329338,31.365377 
z"/>
<path fill="#BD0023" opacity="1.000000" stroke="none" 
	d="
M95.882462,47.722565 
	C95.700760,48.196484 95.336136,48.545315 94.711266,48.934990 
	C94.394218,48.644791 94.337418,48.313755 94.350800,47.739815 
	C94.847176,47.530437 95.273354,47.563961 95.882462,47.722565 
z"/>
<path fill="#BD0023" opacity="1.000000" stroke="none" 
	d="
M94.365448,11.263607 
	C94.910721,11.241816 95.369804,11.460942 95.948944,11.915876 
	C95.660454,12.305348 95.251915,12.459012 94.631790,12.557577 
	C94.373222,12.169827 94.326248,11.837176 94.365448,11.263607 
z"/>
<path fill="#E3A7B0" opacity="1.000000" stroke="none" 
	d="
M94.968758,69.733170 
	C95.041222,69.910133 94.742714,70.107109 94.573090,70.161743 
	C94.327736,70.039894 94.252007,69.863411 94.243866,69.409363 
	C94.598038,69.146896 94.792976,69.288361 94.968758,69.733170 
z"/>
<path fill="#BE002A" opacity="1.000000" stroke="none" 
	d="
M96.431877,24.718300 
	C96.233444,24.866848 95.947540,24.974823 95.661636,25.082794 
	C95.761429,24.989368 95.861229,24.895945 96.115150,24.651321 
	C96.269272,24.500124 96.344406,24.677727 96.431877,24.718300 
z"/>
</svg>